<svg width="967" height="1095" viewBox="0 0 967 1095" fill="none" xmlns="http://www.w3.org/2000/svg">
<path d="M162 1059.88L675 1094.38L719.5 494.884L88 477.884L162 1059.88Z" fill="#BC8C57"/>
<path d="M88 477.884L719.5 494.884L688.5 396.384L576.5 313.959L403 311.96C403 311.96 384.372 303.894 386 296.384C388.45 285.085 417 291.384 417 291.384C417 291.384 429.152 293.596 433.5 289.384C437.988 285.036 433.5 277.884 433.5 277.884C433.5 277.884 402.645 247.342 384.5 234.884C356 226.884 310.5 220.608 287 232.884C265.943 243.884 255.984 294.193 217 305.384C197.293 311.041 165.5 308.884 165.5 308.884H128.5L61 387.884L88 477.884Z" fill="#BC8C57"/>
<path d="M719.5 494.884L675 1094.38L794.196 729.884L789.5 621.884L816.833 566.384L789.5 504.384L719.5 494.884Z" fill="#79563C"/>
<path d="M806.5 1012.88L880.5 455.384L855 488.884L816.833 566.384L789.5 621.884L794.196 729.884L806.5 1012.88Z" fill="#79563C"/>
<path d="M719.5 494.884L880.5 455.384L943.5 334.384L967 245.884L895.5 254.884L837.114 318.884L791.5 368.884L719.5 494.884Z" fill="#79563C"/>
<path d="M61 387.884L128.5 308.884H165.5L88 248.384H0L8.5 341.884L88 477.884L61 387.884Z" fill="#79563C"/>
<path d="M709 277.884C709 277.884 698 243.384 676.5 232.884C653 221.407 586.312 223.384 568.5 232.884C546 244.884 536 277.884 536 277.884H709Z" fill="#E2BE94"/>
<path d="M719.5 494.884L791.5 368.884L837.114 318.884L791.5 277.884H709H536H433.5C433.5 277.884 437.988 285.036 433.5 289.384C429.152 293.596 417 291.384 417 291.384L403 311.96L576.5 313.959L688.5 396.384L719.5 494.884Z" fill="#E2BE94"/>
<path d="M675 1094.38L806.5 1012.88L794.196 729.884L675 1094.38Z" fill="#6A4B37"/>
<path d="M880.5 455.384L719.5 494.884L789.5 504.384L816.833 566.384L855 488.884L880.5 455.384Z" fill="#6A4B37"/>
<path d="M492.717 147.28C492.717 228.62 548.487 450 474.283 450C400.079 450 224 228.62 224 147.28C224 65.9394 284.154 0 358.359 0C432.563 0 492.717 65.9394 492.717 147.28Z" fill="#8F0808"/>
<path d="M743 147.28C743 228.62 548.487 450 474.283 450C400.079 450 474.283 228.62 474.283 147.28C474.283 65.9394 534.437 0 608.641 0C682.846 0 743 65.9394 743 147.28Z" fill="#8F0808"/>
<path d="M162 1059.88L675 1094.38L719.5 494.884L88 477.884L162 1059.88Z" fill="#BC8C57"/>
<path d="M88 477.884L719.5 494.884L688.5 396.384L576.5 313.959L403 311.96C403 311.96 384.372 303.894 386 296.384C388.45 285.085 417 291.384 417 291.384C417 291.384 429.152 293.596 433.5 289.384C437.988 285.036 433.5 277.884 433.5 277.884C433.5 277.884 402.645 247.342 384.5 234.884C356 226.884 310.5 220.608 287 232.884C265.943 243.884 255.984 294.193 217 305.384C197.293 311.041 165.5 308.884 165.5 308.884H128.5L61 387.884L88 477.884Z" fill="#BC8C57"/>
<path d="M719.5 494.884L675 1094.38L794.196 729.884L789.5 621.884L816.833 566.384L789.5 504.384L719.5 494.884Z" fill="#79563C"/>
<path d="M806.5 1012.88L880.5 455.384L855 488.884L816.833 566.384L789.5 621.884L794.196 729.884L806.5 1012.88Z" fill="#79563C"/>
<path d="M719.5 494.884L880.5 455.384L943.5 334.384L967 245.884L895.5 254.884L837.114 318.884L791.5 368.884L719.5 494.884Z" fill="#79563C"/>
<path d="M61 387.884L128.5 308.884H165.5L88 248.384H0L8.5 341.884L88 477.884L61 387.884Z" fill="#79563C"/>
<path d="M675 1094.38L806.5 1012.88L794.196 729.884L675 1094.38Z" fill="#6A4B37"/>
<path d="M880.5 455.384L719.5 494.884L789.5 504.384L816.833 566.384L855 488.884L880.5 455.384Z" fill="#6A4B37"/>
<path d="M80.5 477L51 384.5L120 307L483 486L80.5 477Z" fill="#79563C" fill-opacity="0.16"/>
<path d="M502.152 850.898L501.674 878.294L444.482 877.295L443.966 906.891L486.759 907.638L486.295 934.234L443.501 933.487L442.51 990.278L408.315 989.681L410.766 849.302L502.152 850.898ZM623.508 853.017L623.03 880.412L565.839 879.414L565.322 909.009L608.116 909.757L607.651 936.353L564.858 935.605L563.866 992.397L529.672 991.8L532.122 851.421L623.508 853.017Z" fill="#8F0808"/>
</svg>
