<svg width="79" height="95" viewBox="0 0 79 95" fill="none" xmlns="http://www.w3.org/2000/svg">
<path d="M67.4308 67.1754L39.4999 95L11.5693 67.1754C-3.85642 51.8078 -3.85642 26.8927 11.5693 11.5254C26.995 -3.84182 52.0048 -3.84182 67.4308 11.5254C82.8564 26.8927 82.8564 51.8078 67.4308 67.1754ZM39.4999 56.8394C49.1954 56.8394 57.0555 49.0091 57.0555 39.3503C57.0555 29.6914 49.1954 21.8613 39.4999 21.8613C29.8043 21.8613 21.9444 29.6914 21.9444 39.3503C21.9444 49.0091 29.8043 56.8394 39.4999 56.8394Z" fill="#82181A"/>
<path d="M39.4999 56.8394C49.1954 56.8394 57.0555 49.0091 57.0555 39.3503C57.0555 29.6914 49.1954 21.8613 39.4999 21.8613C29.8043 21.8613 21.9444 29.6914 21.9444 39.3503C21.9444 49.0091 29.8043 56.8394 39.4999 56.8394Z" fill="#82181A"/>
<path d="M49.3969 26.6827H55.335L61.2732 34.6771V46.3942H57.2443C56.7639 49.7375 53.8766 52.3077 50.3866 52.3077C46.8965 52.3077 44.0092 49.7375 43.5288 46.3942H33.4917C33.0115 49.7375 30.1242 52.3077 26.634 52.3077C23.1439 52.3077 20.2566 49.7375 19.7764 46.3942H17.7268V22.7404C17.7268 21.6518 18.613 20.7692 19.7062 20.7692H47.4175C48.5107 20.7692 49.3969 21.6518 49.3969 22.7404V26.6827ZM49.3969 30.625V36.5385H57.3144V35.9767L53.3392 30.625H49.3969Z" fill="#E2BE94"/>
</svg>
